<svg viewBox="0 0 400 300" xmlns="http://www.w3.org/2000/svg">
  <defs>
    <linearGradient id="skyGrad" x1="0%" y1="0%" x2="0%" y2="100%">
      <stop offset="0%" style="stop-color:#87CEEB;stop-opacity:1" />
      <stop offset="100%" style="stop-color:#E0F6FF;stop-opacity:1" />
    </linearGradient>
  </defs>
  
  <rect width="400" height="300" fill="url(#skyGrad)"/>
  <rect x="0" y="200" width="400" height="100" fill="#228B22"/>
  
  <!-- Park pathways -->
  <path d="M 50 220 Q 100 200 150 220 Q 200 240 250 220 Q 300 200 350 220" 
        fill="none" stroke="#D2691E" stroke-width="8"/>
  
  <!-- Trees throughout park -->
  <ellipse cx="80" cy="180" rx="20" ry="25" fill="#006400"/>
  <rect x="77" y="190" width="6" height="20" fill="#8B4513"/>
  
  <ellipse cx="320" cy="170" rx="25" ry="30" fill="#228B22"/>
  <rect x="317" y="185" width="6" height="25" fill="#8B4513"/>
  
  <ellipse cx="150" cy="160" rx="18" ry="22" fill="#32CD32"/>
  <rect x="147" y="170" width="6" height="18" fill="#8B4513"/>
  
  <ellipse cx="250" cy="165" rx="22" ry="28" fill="#006400"/>
  <rect x="247" y="180" width="6" height="22" fill="#8B4513"/>
  
  <!-- Playground area -->
  <rect x="120" y="230" width="60" height="40" fill="#F4A460" opacity="0.7"/>
  
  <!-- Swing set -->
  <rect x="130" y="235" width="2" height="15" fill="#8B4513"/>
  <rect x="140" y="235" width="2" height="15" fill="#8B4513"/>
  <rect x="150" y="235" width="2" height="15" fill="#8B4513"/>
  <line x1="125" y1="235" x2="155" y2="235" stroke="#8B4513" stroke-width="3"/>
  <rect x="127" y="248" width="8" height="3" fill="#FF6347"/>
  <rect x="137" y="248" width="8" height="3" fill="#32CD32"/>
  <rect x="147" y="248" width="8" height="3" fill="#4169E1"/>
  
  <!-- Slide -->
  <polygon points="160,250 170,235 175,235 175,250" fill="#FFD700"/>
  <rect x="160" y="248" width="15" height="8" fill="#FF6347"/>
  
  <!-- Benches -->
  <rect x="190" y="245" width="25" height="4" fill="#8B4513"/>
  <rect x="192" y="240" width="3" height="9" fill="#8B4513"/>
  <rect x="212" y="240" width="3" height="9" fill="#8B4513"/>
  
  <rect x="280" y="235" width="25" height="4" fill="#8B4513"/>
  <rect x="282" y="230" width="3" height="9" fill="#8B4513"/>
  <rect x="302" y="230" width="3" height="9" fill="#8B4513"/>
  
  <!-- Flower beds -->
  <ellipse cx="100" cy="240" rx="15" ry="8" fill="#FF69B4"/>
  <ellipse cx="300" cy="250" rx="18" ry="10" fill="#FF1493"/>
  <ellipse cx="200" cy="260" rx="12" ry="6" fill="#FF69B4"/>
  
  <!-- Small flowers -->
  <circle cx="95" cy="238" r="2" fill="#FF0000"/>
  <circle cx="105" cy="242" r="2" fill="#FFFF00"/>
  <circle cx="100" cy="245" r="2" fill="#FF69B4"/>
  
  <circle cx="295" cy="248" r="2" fill="#FF1493"/>
  <circle cx="305" cy="252" r="2" fill="#FF0000"/>
  <circle cx="300" cy="255" r="2" fill="#FFFF00"/>
  
  <!-- Park fountain -->
  <ellipse cx="200" cy="200" rx="20" ry="12" fill="#4169E1" opacity="0.6"/>
  <rect x="195" y="195" width="10" height="8" fill="#696969"/>
  <line x1="200" y1="190" x2="200" y2="185" stroke="#87CEEB" stroke-width="2"/>
  <line x1="195" y1="192" x2="195" y2="187" stroke="#87CEEB" stroke-width="1"/>
  <line x1="205" y1="192" x2="205" y2="187" stroke="#87CEEB" stroke-width="1"/>
  
  <!-- People in park -->
  <ellipse cx="160" cy="215" rx="3" ry="8" fill="#4B0082"/>
  <ellipse cx="240" cy="225" rx="3" ry="8" fill="#8B0000"/>
  <ellipse cx="120" cy="260" rx="2" ry="6" fill="#2F4F4F"/>
  <ellipse cx="130" cy="265" rx="2" ry="5" fill="#FF69B4"/>
  
  <!-- Selimiye Camii silhouette in background -->
  <rect x="350" y="100" width="40" height="25" fill="#D2B48C" opacity="0.4"/>
  <ellipse cx="370" cy="100" rx="12" ry="8" fill="#D2B48C" opacity="0.4"/>
  <rect x="365" y="80" width="3" height="25" fill="#D2B48C" opacity="0.4"/>
  <rect x="375" y="80" width="3" height="25" fill="#D2B48C" opacity="0.4"/>
  
  <text x="200" y="290" text-anchor="middle" font-family="serif" font-size="14" font-weight="bold" fill="#2F4F4F">Mimar Sinan Parkı</text>
</svg>